<svg width="400" height="400" viewBox="0 0 400 400" xmlns="http://www.w3.org/2000/svg">
  <!-- Background circles -->
  <circle cx="200" cy="200" r="180" fill="#eef2ff" />
  <circle cx="200" cy="200" r="150" fill="#e0e7ff" />
  
  <!-- Decorative elements -->
  <circle cx="200" cy="200" r="100" fill="#dbeafe" stroke="#93c5fd" stroke-width="2" />
  <circle cx="200" cy="200" r="70" fill="#bfdbfe" stroke="#60a5fa" stroke-width="2" />
  
  <!-- Central gear -->
  <g transform="translate(200, 200)">
    <circle cx="0" cy="0" r="40" fill="#3b82f6" />
    <circle cx="0" cy="0" r="15" fill="#1e40af" />
    
    <!-- Gear teeth -->
    <g>
      <rect x="-5" y="-55" width="10" height="20" fill="#3b82f6" />
      <rect x="-5" y="35" width="10" height="20" fill="#3b82f6" />
      <rect x="35" y="-5" width="20" height="10" fill="#3b82f6" />
      <rect x="-55" y="-5" width="20" height="10" fill="#3b82f6" />
      
      <!-- Diagonal teeth -->
      <g transform="rotate(45)">
        <rect x="-5" y="-55" width="10" height="20" fill="#3b82f6" />
        <rect x="-5" y="35" width="10" height="20" fill="#3b82f6" />
        <rect x="35" y="-5" width="20" height="10" fill="#3b82f6" />
        <rect x="-55" y="-5" width="20" height="10" fill="#3b82f6" />
      </g>
    </g>
  </g>
  
  <!-- Orbital elements -->
  <g>
    <!-- Orbit paths -->
    <circle cx="200" cy="200" r="120" fill="none" stroke="#93c5fd" stroke-width="1" stroke-dasharray="5,5" />
    
    <!-- Orbiting elements -->
    <g>
      <circle cx="320" cy="200" r="15" fill="#2563eb" />
      <circle cx="320" cy="200" r="5" fill="#dbeafe" />
    </g>
    
    <g>
      <circle cx="200" cy="80" r="15" fill="#4f46e5" />
      <circle cx="200" cy="80" r="5" fill="#dbeafe" />
    </g>
    
    <g>
      <circle cx="120" cy="280" r="15" fill="#6366f1" />
      <circle cx="120" cy="280" r="5" fill="#dbeafe" />
    </g>
  </g>
  
  <!-- Connectors -->
  <line x1="200" y1="200" x2="320" y2="200" stroke="#93c5fd" stroke-width="2" />
  <line x1="200" y1="200" x2="200" y2="80" stroke="#93c5fd" stroke-width="2" />
  <line x1="200" y1="200" x2="120" y2="280" stroke="#93c5fd" stroke-width="2" />
  
  <!-- Smaller floating elements -->
  <circle cx="280" cy="120" r="8" fill="#4f46e5" />
  <circle cx="100" cy="150" r="10" fill="#6366f1" />
  <circle cx="300" cy="250" r="7" fill="#2563eb" />
  <circle cx="170" cy="300" r="9" fill="#3b82f6" />
</svg>